HIERARCHY
ROOT Hips
{
	OFFSET	0.00	0.00	0.00
	CHANNELS 6 Xposition Yposition Zposition Zrotation Xrotation Yrotation
	JOINT LeftHip
	{
		OFFSET	 3.430000	 0.000000	 0.000000
		CHANNELS 3 Zrotation Xrotation Yrotation
		JOINT LeftKnee
		{
			OFFSET	 0.000000	-18.469999	 0.000000
			CHANNELS 3 Zrotation Xrotation Yrotation
			JOINT LeftAnkle
			{
				OFFSET	 0.000000	-17.950001	 0.000000
				CHANNELS 3 Zrotation Xrotation Yrotation
				End Site 
				{
					OFFSET	 0.000000	-3.119996	 0.000000
				}
			}
		}
	}
	JOINT RightHip
	{
		OFFSET	-3.430000	 0.000000	 0.000000
		CHANNELS 3 Zrotation Xrotation Yrotation
		JOINT RightKnee
		{
			OFFSET	 0.000000	-18.809999	 0.000000
			CHANNELS 3 Zrotation Xrotation Yrotation
			JOINT RightAnkle
			{
				OFFSET	 0.000000	-17.570000	 0.000000
				CHANNELS 3 Zrotation Xrotation Yrotation
				End Site 
				{
					OFFSET	 0.000000	-3.250000	 0.000000
				}
			}
		}
	}
	JOINT Chest
	{
		OFFSET	 0.000000	 4.570000	 0.000000
		CHANNELS 3 Zrotation Xrotation Yrotation
		JOINT LeftCollar
		{
			OFFSET	 1.060000	 15.330000	 1.760000
			CHANNELS 3 Zrotation Xrotation Yrotation
			JOINT LeftShoulder
			{
				OFFSET	 5.810000	 0.000000	 0.000000
				CHANNELS 3 Zrotation Xrotation Yrotation
				JOINT LeftElbow
				{
					OFFSET	 0.000000	-12.080000	 0.000000
					CHANNELS 3 Zrotation Xrotation Yrotation
					JOINT LeftWrist
					{
						OFFSET	 0.000000	-9.820000	 0.000000
						CHANNELS 3 Zrotation Xrotation Yrotation
						End Site 
						{
							OFFSET	 0.000000	-7.369996	 0.000000
						}
					}
				}
			}
		}
		JOINT RightCollar
		{
			OFFSET	-1.060000	 15.330000	 1.760000
			CHANNELS 3 Zrotation Xrotation Yrotation
			JOINT RightShoulder
			{
				OFFSET	-6.060000	 0.000000	 0.000000
				CHANNELS 3 Zrotation Xrotation Yrotation
				JOINT RightElbow
				{
					OFFSET	 0.000000	-11.900000	 0.000000
					CHANNELS 3 Zrotation Xrotation Yrotation
					JOINT RightWrist
					{
						OFFSET	 0.000000	-9.520000	 0.000000
						CHANNELS 3 Zrotation Xrotation Yrotation
						End Site 
						{
							OFFSET	 0.000000	-7.140012	 0.000000
						}
					}
				}
			}
		}
		JOINT Neck
		{
			OFFSET	 0.000000	 17.620001	 0.000000
			CHANNELS 3 Zrotation Xrotation Yrotation
			JOINT Head
			{
				OFFSET	 0.000000	 5.190000	 0.000000
				CHANNELS 3 Zrotation Xrotation Yrotation
				End Site 
				{
					OFFSET	 0.000000	 4.140008	 0.000000
				}
			}
		}
	}
}

MOTION
Frames: 18
Frame Time: 0.033333
-44.3891 1.8721 -41.2264 3.35902 1.2617 71.0686 8.36307 -9.96619 7.67286 1.71577 12.233 5.61284 -13.1524 5.18635 -1.26257 -10.8991 3.45993 -25.7746 1.9688 9.44544 5.93992 1.60329 -10.0352 -4.00111 1.15001 8.68124 4.90018 0 0 0 10.8454 2.54698 13.873 -39.8073 -32.9717 -27.6561 14.5134 -41.1808 -19.4423 0 0 0 -9.55332 -9.66809 -0.0977889 25.5698 -34.9833 17.3242 -26.9601 -42.6757 16.1187 0 0 0 -0.989071 4.6217 24.3947 
-44.3812 1.8774 -41.222 3.30841 1.28542 71.0477 8.34914 -9.92676 7.40649 1.71962 12.0554 5.65644 -13.2238 5.2318 -1.00258 -10.8833 3.44194 -25.7799 1.96259 9.40707 5.9499 1.60899 -10.0329 -3.99519 1.11036 8.64674 4.94889 0 0 0 10.7758 2.59025 13.9282 -39.797 -32.9975 -27.706 14.4065 -41.0486 -19.4966 0 0 0 -9.60037 -9.67029 -0.0605605 25.5683 -34.9818 17.3122 -27.0751 -42.7444 16.0687 0 0 0 -0.982533 4.60901 24.3925 
-44.3701 1.8751 -41.2191 3.2754 1.30842 71.0161 8.32171 -9.91835 7.23703 1.71034 11.9159 5.71494 -13.2425 5.29094 -0.836564 -10.8767 3.42973 -25.7686 1.96377 9.37348 5.95337 1.60675 -10.0286 -3.98681 1.0628 8.61885 5.00223 0 0 0 10.7247 2.61738 13.9755 -39.7774 -33.0132 -27.7221 14.3395 -40.9542 -19.5511 0 0 0 -9.63335 -9.6833 -0.0347957 25.5601 -34.97 17.3126 -27.2357 -42.869 15.9875 0 0 0 -0.9656 4.60168 24.3984 
-44.3546 1.8784 -41.2195 3.24149 1.32852 70.9724 8.29999 -9.90655 7.12975 1.70785 11.8197 5.76964 -13.2582 5.32167 -0.73065 -10.8664 3.42486 -25.7468 1.96576 9.32977 5.96134 1.59862 -10.0311 -3.97801 1.02075 8.58682 5.06684 0 0 0 10.6832 2.64724 14.0204 -39.7632 -33.0164 -27.7464 14.366 -40.8773 -19.579 0 0 0 -9.66514 -9.6889 -0.0103476 25.5556 -34.9606 17.3019 -27.36 -42.959 15.9246 0 0 0 -0.955251 4.59794 24.4009 
-44.3345 1.8834 -41.212 3.16887 1.37734 70.9314 8.23891 -9.93577 6.8951 1.74258 11.6307 5.8009 -13.3082 5.40673 -0.450303 -10.8474 3.40969 -25.7574 1.96483 9.25559 5.98328 1.58359 -10.0397 -3.9645 0.936665 8.55114 5.17367 0 0 0 10.5971 2.66209 14.0698 -39.7034 -33.0136 -27.7462 14.3437 -40.7311 -19.6621 0 0 0 -9.73773 -9.7174 0.00162329 25.5292 -34.9546 17.2891 -27.5432 -43.0882 15.8108 0 0 0 -0.930631 4.55444 24.3782 
-44.3144 1.8834 -41.2094 3.10637 1.42062 70.8906 8.18697 -9.94423 6.66863 1.75696 11.4368 5.85383 -13.346 5.49486 -0.207654 -10.8341 3.41105 -25.7413 1.96533 9.1737 5.99617 1.5739 -10.0446 -3.95684 0.862128 8.50613 5.28409 0 0 0 10.512 2.67948 14.1344 -39.6498 -33.0045 -27.7668 14.3601 -40.5877 -19.7256 0 0 0 -9.80559 -9.7414 0.00771118 25.5354 -34.9566 17.3021 -27.7272 -43.1968 15.6948 0 0 0 -0.904 4.52629 24.3568 
-44.2868 1.8834 -41.2069 3.03982 1.47221 70.8493 8.15486 -9.9093 6.54993 1.71148 11.2439 5.9395 -13.3331 5.55589 -0.0994673 -10.8386 3.4022 -25.704 1.97225 9.09801 5.99509 1.58255 -10.0456 -3.96244 0.793024 8.41824 5.40561 0 0 0 10.4603 2.72763 14.155 -39.5931 -32.9851 -27.7852 14.4487 -40.5241 -19.7685 0 0 0 -9.85152 -9.7482 -0.0214091 25.5348 -34.9484 17.3067 -27.891 -43.2951 15.5905 0 0 0 -0.88402 4.5321 24.3063 
-44.2667 1.8809 -41.2069 2.98208 1.52152 70.8216 8.14341 -9.87009 6.52164 1.64451 11.1132 6.0468 -13.2937 5.58619 -0.123085 -10.8399 3.40688 -25.6757 1.98385 9.01434 5.98357 1.58296 -10.0379 -3.96255 0.732306 8.34477 5.50597 0 0 0 10.4293 2.75539 14.1685 -39.6061 -32.9957 -27.8271 14.6098 -40.4414 -19.8092 0 0 0 -9.88148 -9.7662 -0.0423132 25.5315 -34.941 17.2944 -28.0091 -43.3832 15.5206 0 0 0 -0.870359 4.52313 24.2659 
-44.2391 1.8784 -41.2069 2.93911 1.56081 70.8069 8.117 -9.875 6.5863 1.6073 11.0713 6.08935 -13.2388 5.58867 -0.196233 -10.8435 3.42772 -25.6504 1.99458 8.93225 5.97188 1.58351 -10.0303 -3.96926 0.683778 8.26396 5.5972 0 0 0 10.4262 2.76593 14.1467 -39.5647 -32.9675 -27.8005 14.731 -40.4332 -19.8767 0 0 0 -9.89223 -9.78019 -0.0949804 25.5092 -34.9432 17.2877 -28.0305 -43.4256 15.4811 0 0 0 -0.849083 4.52712 24.2125 
-44.2165 1.8784 -41.2069 2.90101 1.59364 70.7985 8.10709 -9.85524 6.65169 1.58262 11.0635 6.10325 -13.215 5.54504 -0.267452 -10.8452 3.45543 -25.6314 1.99977 8.85613 5.96659 1.59387 -10.0321 -3.97731 0.652418 8.19254 5.67217 0 0 0 10.4283 2.77146 14.131 -39.5282 -32.9313 -27.783 14.8439 -40.449 -19.9511 0 0 0 -9.89974 -9.79357 -0.143694 25.5069 -34.9446 17.2843 -27.9785 -43.3955 15.484 0 0 0 -0.848818 4.53346 24.165 
-44.1939 1.8759 -41.2044 2.86443 1.62341 70.7974 8.09786 -9.84999 6.71615 1.55487 11.0535 6.09448 -13.1901 5.50672 -0.317867 -10.8517 3.47574 -25.6247 2.00749 8.79087 5.96664 1.60608 -10.0212 -3.99068 0.622129 8.12233 5.73239 0 0 0 10.442 2.76398 14.0996 -39.4917 -32.916 -27.7455 14.8613 -40.4582 -20.075 0 0 0 -9.88667 -9.81274 -0.20165 25.4992 -34.9496 17.2962 -27.9049 -43.3566 15.5076 0 0 0 -0.845175 4.53597 24.1148 
-44.1713 1.8734 -41.2069 2.82884 1.64199 70.7841 8.10061 -9.8384 6.77905 1.53742 11.0968 6.0961 -13.1775 5.42448 -0.389143 -10.8586 3.48967 -25.6051 2.01905 8.74462 5.95962 1.62094 -10.0246 -3.99245 0.601806 8.03486 5.7672 0 0 0 10.4715 2.77035 14.1103 -39.4528 -32.8947 -27.7254 14.8431 -40.4692 -20.1829 0 0 0 -9.8526 -9.81282 -0.230573 25.5085 -34.9397 17.3157 -27.8151 -43.3135 15.5703 0 0 0 -0.836259 4.56396 24.096 
-44.1437 1.8709 -41.2119 2.80422 1.66286 70.7519 8.09693 -9.81423 6.84474 1.51453 11.1503 6.0858 -13.1665 5.32335 -0.43126 -10.8706 3.51508 -25.588 2.03152 8.68541 5.96707 1.64259 -10.0085 -3.99215 0.57992 7.95503 5.81848 0 0 0 10.5036 2.76408 14.0839 -39.3976 -32.8754 -27.6894 14.8026 -40.4843 -20.2745 0 0 0 -9.81936 -9.80869 -0.265684 25.5008 -34.9115 17.3106 -27.7128 -43.296 15.6467 0 0 0 -0.838993 4.59679 24.0598 
-44.1161 1.8684 -41.2169 2.7873 1.67038 70.6741 8.09824 -9.79345 6.92916 1.51936 11.2416 6.02756 -13.1765 5.18897 -0.405964 -10.874 3.55745 -25.5475 2.03767 8.62199 5.99611 1.66358 -10.0075 -3.98919 0.565329 7.89633 5.8539 0 0 0 10.531 2.74066 14.1116 -39.344 -32.8585 -27.6444 14.76 -40.501 -20.3708 0 0 0 -9.77176 -9.81401 -0.244985 25.4973 -34.9035 17.3221 -27.6153 -43.2725 15.7207 0 0 0 -0.866128 4.59952 24.0547 
-44.0759 1.8734 -41.2245 2.75971 1.68272 70.5666 8.09699 -9.76645 7.02552 1.51231 11.3485 5.93953 -13.1826 5.01731 -0.336289 -10.8917 3.60798 -25.5127 2.05429 8.53978 6.05619 1.70003 -10.0073 -3.97985 0.546063 7.83224 5.89074 0 0 0 10.5616 2.71559 14.1719 -39.2958 -32.8164 -27.6268 14.7446 -40.5399 -20.4498 0 0 0 -9.71798 -9.81764 -0.204596 25.5037 -34.8966 17.3493 -27.5327 -43.2399 15.7871 0 0 0 -0.899835 4.60335 24.0371 
-44.0407 1.8684 -41.227 2.74676 1.68807 70.4462 8.08802 -9.73071 7.08829 1.49614 11.4334 5.87763 -13.1742 4.86685 -0.250905 -10.9114 3.6644 -25.4723 2.0702 8.47652 6.11404 1.73776 -10.0167 -3.95762 0.519696 7.75508 5.90873 0 0 0 10.5937 2.70475 14.2511 -39.2493 -32.7707 -27.6052 14.7575 -40.5644 -20.4928 0 0 0 -9.65124 -9.79177 -0.131922 25.5221 -34.8719 17.3738 -27.4947 -43.2172 15.8329 0 0 0 -0.956136 4.59597 24.0108 
-43.998 1.8709 -41.2295 2.70716 1.70871 70.3318 8.07047 -9.71699 7.14158 1.49422 11.5147 5.78451 -13.1783 4.71359 -0.122113 -10.9342 3.71779 -25.4491 2.09313 8.40397 6.16182 1.77524 -10.035 -3.91976 0.492069 7.65026 5.89889 0 0 0 10.6221 2.68897 14.3229 -39.1517 -32.7439 -27.5575 14.7583 -40.5777 -20.4865 0 0 0 -9.56975 -9.7658 -0.0456617 25.5133 -34.8475 17.3845 -27.4564 -43.1605 15.867 0 0 0 -1.00831 4.58698 23.9833 
-43.9503 1.8658 -41.232 2.68888 1.72013 70.1972 8.05267 -9.67776 7.18051 1.4947 11.611 5.69481 -13.185 4.5432 0.0329034 -10.9553 3.79546 -25.4224 2.10041 8.32815 6.18993 1.83789 -10.0571 -3.83633 0.471376 7.54406 5.87301 0 0 0 10.6344 2.68199 14.4198 -39.0465 -32.699 -27.5128 14.7943 -40.629 -20.385 0 0 0 -9.48569 -9.71679 0.0681781 25.5014 -34.8121 17.3737 -27.3972 -43.0793 15.9246 0 0 0 -1.06317 4.60452 23.9915 
